<svg xmlns="http://www.w3.org/2000/svg" width="18" height="18" viewBox="0 0 20 20" fill="none" stroke="currentColor" stroke-width="1.5" stroke-linecap="round" stroke-linejoin="round" class="acorn-icons acorn-icons-server icon"><path d="M15 2H5C4.06812 2 3.60218 2 3.23463 2.15224 2.74458 2.35523 2.35523 2.74458 2.15224 3.23463 2 3.60218 2 4.06812 2 5 2 5.93188 2 6.39782 2.15224 6.76537 2.35523 7.25542 2.74458 7.64477 3.23463 7.84776 3.60218 8 4.06812 8 5 8H15C15.9319 8 16.3978 8 16.7654 7.84776 17.2554 7.64477 17.6448 7.25542 17.8478 6.76537 18 6.39782 18 5.93188 18 5 18 4.06812 18 3.60218 17.8478 3.23463 17.6448 2.74458 17.2554 2.35523 16.7654 2.15224 16.3978 2 15.9319 2 15 2zM15 12H5C4.06812 12 3.60218 12 3.23463 12.1522 2.74458 12.3552 2.35523 12.7446 2.15224 13.2346 2 13.6022 2 14.0681 2 15 2 15.9319 2 16.3978 2.15224 16.7654 2.35523 17.2554 2.74458 17.6448 3.23463 17.8478 3.60218 18 4.06812 18 5 18H15C15.9319 18 16.3978 18 16.7654 17.8478 17.2554 17.6448 17.6448 17.2554 17.8478 16.7654 18 16.3978 18 15.9319 18 15 18 14.0681 18 13.6022 17.8478 13.2346 17.6448 12.7446 17.2554 12.3552 16.7654 12.1522 16.3978 12 15.9319 12 15 12z"></path><path d="M13 5H15M13 15H15M7 8 7 12M13 8 13 12"></path></svg>