<svg xmlns="http://www.w3.org/2000/svg" width="18" height="18" viewBox="0 0 20 20" fill="none" stroke="currentColor" stroke-width="1.5" stroke-linecap="round" stroke-linejoin="round" class="acorn-icons acorn-icons-database icon"><path d="M16 3H4C2.89543 3 2 3.89543 2 5 2 6.10457 2.89543 7 4 7H16C17.1046 7 18 6.10457 18 5 18 3.89543 17.1046 3 16 3zM15 7H5C3.34315 7 2 8.34315 2 10 2 11.6569 3.34315 13 5 13H15C16.6569 13 18 11.6569 18 10 18 8.34315 16.6569 7 15 7zM16 13H4C2.89543 13 2 13.8954 2 15 2 16.1046 2.89543 17 4 17H16C17.1046 17 18 16.1046 18 15 18 13.8954 17.1046 13 16 13z"></path><path d="M13 10H15"></path></svg>