<svg xmlns="http://www.w3.org/2000/svg" width="18" height="18" viewBox="0 0 20 20" fill="none" stroke="currentColor" stroke-width="1.5" stroke-linecap="round" stroke-linejoin="round" class="acorn-icons acorn-icons-settings-1 d-inline-block">
											<path d="M2 4 4 4M18 4 8 4M2 10 12 10M18 10 16 10M2 16H4M18 16 8 16"></path>
											<path d="M4 4C4 2.89543 4.89543 2 6 2V2C7.10457 2 8 2.89543 8 4V4C8 5.10457 7.10457 6 6 6V6C4.89543 6 4 5.10457 4 4V4zM12 10C12 8.89543 12.8954 8 14 8V8C15.1046 8 16 8.89543 16 10V10C16 11.1046 15.1046 12 14 12V12C12.8954 12 12 11.1046 12 10V10zM4 16C4 14.8954 4.89543 14 6 14V14C7.10457 14 8 14.8954 8 16V16C8 17.1046 7.10457 18 6 18V18C4.89543 18 4 17.1046 4 16V16z"></path></svg>