<svg xmlns="http://www.w3.org/2000/svg" width="18" height="18" viewBox="0 0 20 20" fill="none" stroke="currentColor" stroke-width="1.5" stroke-linecap="round" stroke-linejoin="round" class="acorn-icons acorn-icons-dashboard-1 d-inline-block">
											<path d="M18 12C18 10.9391 17.7935 9.92643 17.4185 9 17.0126 7.9973 16.4093 7.09562 15.6569 6.34315M2 12C2 10.9391 2.20651 9.92643 2.58152 9 2.9874 7.9973 3.59067 7.09562 4.34315 6.34315M13 4.58152C12.0736 4.20651 11.0609 4 10 4 8.9391 4 7.92643 4.20651 7 4.58152M7 10 9.12132 12.1213"></path>
											<path d="M11 16C9.89543 16 9 15.1046 9 14V14C9 12.8954 9.89543 12 11 12V12C12.1046 12 13 12.8954 13 14V14C13 15.1046 12.1046 16 11 16V16Z"></path></svg>