<svg xmlns="http://www.w3.org/2000/svg" width="20" height="20" viewBox="0 0 20 20" fill="none" stroke="currentColor" stroke-width="1.5" stroke-linecap="round" stroke-linejoin="round" class="me-1 acorn-icons acorn-icons-diagram-2  d-inline-block ">
												<path d="M12 4.28986C14.8915 5.15041 17 7.82896 17 11 17 11.3964 16.967 11.7852 16.9037 12.1636M3.07089 12C3.02417 11.6734 3 11.3395 3 11 3 7.82896 5.10851 5.15041 8 4.28986M4.90441 15.7995C6.18092 17.1542 7.99169 18 10 18 11.6695 18 13.2024 17.4156 14.4054 16.4401 14.5768 16.3012 14.7415 16.1543 14.899 16M8 4C8 2.89543 8.89543 2 10 2V2C11.1046 2 12 2.89543 12 4V4C12 5.10457 11.1046 6 10 6V6C8.89543 6 8 5.10457 8 4V4z"></path>
												<path d="M14 14C14 12.8954 14.8954 12 16 12V12C17.1046 12 18 12.8954 18 14V14C18 15.1046 17.1046 16 16 16V16C14.8954 16 14 15.1046 14 14V14zM2 14C2 12.8954 2.89543 12 4 12V12C5.10457 12 6 12.8954 6 14V14C6 15.1046 5.10457 16 4 16V16C2.89543 16 2 15.1046 2 14V14z"></path></svg>