<svg xmlns="http://www.w3.org/2000/svg" width="18" height="18" viewBox="0 0 20 20" fill="none" stroke="currentColor" stroke-width="1.5" stroke-linecap="round" stroke-linejoin="round" class="acorn-icons acorn-icons-bell d-inline-block">
									<path opacity="0.9" d="M11 18H10H9"></path>
									<path d="M6 7.38161V5.6718C6 4.25597 6.83142 2.97212 8.12338 2.39297C8.70126 2.13392 9.32738 2 9.96066 2H10.0393C10.6726 2 11.2987 2.13392 11.8766 2.39297C13.1686 2.97212 14 4.25597 14 5.6718V7.38161C14 8.44715 14.2374 9.4993 14.6949 10.4616L15.578 12.3193C15.8428 12.8762 15.8216 13.5267 15.5213 14.0653C15.1995 14.6423 14.5905 15 13.9297 15H6.07028C5.40953 15 4.80053 14.6423 4.4787 14.0653C4.17837 13.5267 4.15724 12.8762 4.42198 12.3193L5.30513 10.4616C5.76263 9.4993 6 8.44715 6 7.38161Z"></path></svg>