<svg class="svg-icon" style="width: 35px; height: 35px;vertical-align: middle;fill: #fff;overflow: hidden;" viewBox="0 0 1024 1024" version="1.1" xmlns="http://www.w3.org/2000/svg"><path d="M736 560V256c0-19.2 12.8-32 32-32s32 12.8 32 32v512c0 19.2-12.8 32-32 32H256c-19.2 0-32-12.8-32-32V256c0-19.2 12.8-32 32-32s32 12.8 32 32v112h128c19.2 0 32 12.8 32 32s-12.8 32-32 32H288V736h448v-112h-128c-19.2 0-32-12.8-32-32s12.8-32 32-32h128zM576 416c-54.4 0-96-41.6-96-96s41.6-96 96-96 96 41.6 96 96-41.6 96-96 96z m0-64c19.2 0 32-12.8 32-32s-12.8-32-32-32-32 12.8-32 32 12.8 32 32 32z m-128 320c-54.4 0-96-41.6-96-96s41.6-96 96-96 96 41.6 96 96-41.6 96-96 96z m0-64c19.2 0 32-12.8 32-32s-12.8-32-32-32-32 12.8-32 32 12.8 32 32 32z"></path></svg>