<svg xmlns="http://www.w3.org/2000/svg" width="20" height="20" viewBox="0 0 20 20" fill="none" stroke="#fff" stroke-width="1.5" stroke-linecap="round" stroke-linejoin="round" class="">
															<path d="M2 9.5C2 8.09554 2 7.39331 2.33706 6.88886C2.48298 6.67048 2.67048 6.48298 2.88886 6.33706C3.39331 6 4.09554 6 5.5 6H10.5C11.9045 6 12.6067 6 13.1111 6.33706C13.3295 6.48298 13.517 6.67048 13.6629 6.88886C14 7.39331 14 8.09554 14 9.5V14.5C14 15.9045 14 16.6067 13.6629 17.1111C13.517 17.3295 13.3295 17.517 13.1111 17.6629C12.6067 18 11.9045 18 10.5 18H5.5C4.09554 18 3.39331 18 2.88886 17.6629C2.67048 17.517 2.48298 17.3295 2.33706 17.1111C2 16.6067 2 15.9045 2 14.5V9.5Z"></path>
															<path d="M14 14H14.5C15.9045 14 16.6067 14 17.1111 13.6629C17.3295 13.517 17.517 13.3295 17.6629 13.1111C18 12.6067 18 11.9045 18 10.5V5.5C18 4.09554 18 3.39331 17.6629 2.88886C17.517 2.67048 17.3295 2.48298 17.1111 2.33706C16.6067 2 15.9045 2 14.5 2H9.5C8.09554 2 7.39331 2 6.88886 2.33706C6.67048 2.48298 6.48298 2.67048 6.33706 2.88886C6 3.39331 6 4.09554 6 5.5V6"></path>
															<path d="M6 10H10M6 14H10"></path></svg>