<svg xmlns="http://www.w3.org/2000/svg" width="18" height="18" viewBox="0 0 20 20" fill="none" stroke="currentColor" stroke-width="1.5" stroke-linecap="round" stroke-linejoin="round" class="acorn-icons acorn-icons-file-text icon"><path d="M6.5 18H13.5C14.9045 18 15.6067 18 16.1111 17.6629C16.3295 17.517 16.517 17.3295 16.6629 17.1111C17 16.6067 17 15.9045 17 14.5V7.44975C17 6.83775 17 6.53175 16.9139 6.24786C16.8759 6.12249 16.8256 6.00117 16.7638 5.88563C16.624 5.62399 16.4076 5.40762 15.9749 4.97487L14.0251 3.02513L14.0251 3.02512C13.5924 2.59238 13.376 2.37601 13.1144 2.23616C12.9988 2.1744 12.8775 2.12415 12.7521 2.08612C12.4682 2 12.1622 2 11.5503 2H6.5C5.09554 2 4.39331 2 3.88886 2.33706C3.67048 2.48298 3.48298 2.67048 3.33706 2.88886C3 3.39331 3 4.09554 3 5.5V14.5C3 15.9045 3 16.6067 3.33706 17.1111C3.48298 17.3295 3.67048 17.517 3.88886 17.6629C4.39331 18 5.09554 18 6.5 18Z"></path><path d="M13 6 7 6M13 10 7 10M13 14 7 14"></path></svg>