<svg xmlns="http://www.w3.org/2000/svg" width="20" height="20" viewBox="0 0 20 20" fill="none" stroke="currentColor" stroke-width="1.5" stroke-linecap="round" stroke-linejoin="round" class="acorn-icons acorn-icons-filter undefined"><path d="M15 2H5C4.44772 2 4 2.44772 4 3V6.21639C4 6.44606 4.07906 6.66873 4.22389 6.84698L7.4904 10.8673C7.63523 11.0456 7.71429 11.2682 7.71429 11.4979V16.0963C7.71429 16.475 7.92829 16.8213 8.26707 16.9907L10.8385 18.2764C11.5034 18.6088 12.2857 18.1253 12.2857 17.382V11.4979C12.2857 11.2682 12.3648 11.0456 12.5096 10.8673L15.7761 6.84698C15.9209 6.66873 16 6.44606 16 6.21639V3C16 2.44772 15.5523 2 15 2Z"></path></svg>