<svg xmlns="http://www.w3.org/2000/svg" width="20" height="20" viewBox="0 0 20 20" fill="none" stroke="currentColor" stroke-width="1.5" stroke-linecap="round" stroke-linejoin="round" class="acorn-icons acorn-icons-print undefined"><path d="M6.44444 15 5.52949 15C4.13332 15 3.43524 15 2.9322 14.6657 2.71437 14.5209 2.52706 14.3348 2.38087 14.1179 2.04325 13.6171 2.03869 12.919 2.02956 11.5229L2.02302 10.5229C2.01379 9.1101 2.00917 8.40371 2.34565 7.89566 2.49128 7.67577 2.67897 7.48685 2.8979 7.33979 3.40374 7 4.11015 7 5.52295 7L14.477 7C15.8899 7 16.5963 7 17.1021 7.33979 17.321 7.48685 17.5087 7.67577 17.6543 7.89566 17.9908 8.40371 17.9862 9.1101 17.977 10.5229L17.9704 11.5229C17.9613 12.919 17.9568 13.6171 17.6191 14.1179 17.4729 14.3348 17.2856 14.5209 17.0678 14.6657 16.5648 15 15.8667 15 14.4705 15L13.5556 15M15 7 15 3.75C15 3.04777 15 2.69665 14.8315 2.44443 14.7585 2.33524 14.6648 2.24149 14.5556 2.16853 14.3033 2 13.9522 2 13.25 2L6.75 2C6.04777 2 5.69665 2 5.44443 2.16853 5.33524 2.24149 5.24149 2.33524 5.16853 2.44443 5 2.69665 5 3.04777 5 3.75L5 7"></path><path d="M12.25 13C12.9522 13 13.3033 13 13.5556 13.1685C13.6648 13.2415 13.7585 13.3352 13.8315 13.4444C14 13.6967 14 14.0478 14 14.75L14 16.25C14 16.9522 14 17.3033 13.8315 17.5556C13.7585 17.6648 13.6648 17.7585 13.5556 17.8315C13.3033 18 12.9522 18 12.25 18L7.75 18C7.04777 18 6.69665 18 6.44443 17.8315C6.33524 17.7585 6.24149 17.6648 6.16853 17.5556C6 17.3033 6 16.9522 6 16.25L6 14.75C6 14.0478 6 13.6967 6.16853 13.4444C6.24149 13.3352 6.33524 13.2415 6.44443 13.1685C6.69665 13 7.04777 13 7.75 13L12.25 13Z"></path><path d="M7 10H6H5"></path></svg>