<svg xmlns="http://www.w3.org/2000/svg" width="18" height="18" viewBox="0 0 20 20" fill="none" stroke="currentColor" stroke-width="1.5" stroke-linecap="round" stroke-linejoin="round" class="acorn-icons acorn-icons-destination icon"><path d="M11.5 5L6.25 5C4.73122 5 3.5 6.23122 3.5 7.75V7.75C3.5 9.26878 4.73122 10.5 6.25 10.5L14.25 10.5C15.7688 10.5 17 11.7312 17 13.25V13.25C17 14.7688 15.7688 16 14.25 16L8 16"></path><path d="M15 3.62775C15 1.45741 18 1.45743 18 3.62775 18 4.64119 17.1924 5.44466 16.7623 5.80062 16.608 5.92838 16.3921 5.92838 16.2377 5.80062 15.8077 5.44467 15 4.6412 15 3.62775zM2 15.6277C2 13.4574 5 13.4574 5 15.6277 5 16.6412 4.19236 17.4447 3.76235 17.8006 3.60801 17.9284 3.39207 17.9284 3.23773 17.8006 2.8077 17.4447 2 16.6412 2 15.6277z"></path></svg>