<svg xmlns="http://www.w3.org/2000/svg" width="18" height="18" viewBox="0 0 20 20" fill="none" stroke="currentColor" stroke-width="1.5" stroke-linecap="round" stroke-linejoin="round" class="acorn-icons acorn-icons-folders d-inline-block icon">

<path d="M18 15 18 5C18 4.06812 18 3.60218 17.8478 3.23463 17.6448 2.74458 17.2554 2.35523 16.7654 2.15224 16.3978 2 15.9319 2 15 2 14.0681 2 13.6022 2 13.2346 2.15224 12.7446 2.35523 12.3552 2.74458 12.1522 3.23463 12 3.60217 12 4.06812 12 5L12 15C12 15.9319 12 16.3978 12.1522 16.7654 12.3552 17.2554 12.7446 17.6448 13.2346 17.8478 13.6022 18 14.0681 18 15 18 15.9319 18 16.3978 18 16.7654 17.8478 17.2554 17.6448 17.6448 17.2554 17.8478 16.7654 18 16.3978 18 15.9319 18 15zM8 15 8 5C8 4.06812 8 3.60218 7.84776 3.23463 7.64477 2.74458 7.25542 2.35523 6.76537 2.15224 6.39782 2 5.93188 2 5 2 4.06812 2 3.60218 2 3.23463 2.15224 2.74458 2.35523 2.35523 2.74458 2.15224 3.23463 2 3.60217 2 4.06812 2 5L2 15C2 15.9319 2 16.3978 2.15224 16.7654 2.35523 17.2554 2.74458 17.6448 3.23463 17.8478 3.60217 18 4.06812 18 5 18 5.93188 18 6.39782 18 6.76537 17.8478 7.25542 17.6448 7.64477 17.2554 7.84776 16.7654 8 16.3978 8 15.9319 8 15z"></path>

<path d="M15 5 15 11M15 14 15 15M5 5 5 11M5 14 5 15"></path></svg>