<svg xmlns="http://www.w3.org/2000/svg" width="18" height="18" viewBox="0 0 20 20" fill="none" stroke="currentColor" stroke-width="1.5" stroke-linecap="round" stroke-linejoin="round" class="acorn-icons acorn-icons-grid-5 icon"><path d="M16.25 2C16.9522 2 17.3033 2 17.5556 2.16853 17.6648 2.24149 17.7585 2.33524 17.8315 2.44443 18 2.69666 18 3.04778 18 3.75001L18 6.25001C18 6.95224 18 7.30335 17.8314 7.55557 17.7585 7.66476 17.6647 7.75851 17.5555 7.83147 17.3033 8 16.9522 8 16.25 8L13.75 8C13.0478 8 12.6967 8 12.4444 7.83147 12.3352 7.75851 12.2415 7.66476 12.1685 7.55557 12 7.30335 12 6.95223 12 6.25L12 3.75C12 3.04777 12 2.69665 12.1685 2.44443 12.2415 2.33524 12.3352 2.24149 12.4444 2.16853 12.6967 2 13.0478 2 13.75 2L16.25 2zM16.25 12C16.9522 12 17.3033 12 17.5556 12.1685 17.6648 12.2415 17.7585 12.3352 17.8315 12.4444 18 12.6967 18 13.0478 18 13.75L18 16.25C18 16.9522 18 17.3034 17.8314 17.5556 17.7585 17.6648 17.6647 17.7585 17.5555 17.8315 17.3033 18 16.9522 18 16.25 18L13.75 18C13.0478 18 12.6967 18 12.4444 17.8315 12.3352 17.7585 12.2415 17.6648 12.1685 17.5556 12 17.3033 12 16.9522 12 16.25L12 13.75C12 13.0478 12 12.6967 12.1685 12.4444 12.2415 12.3352 12.3352 12.2415 12.4444 12.1685 12.6967 12 13.0478 12 13.75 12L16.25 12zM6.25 2C6.95223 2 7.30335 2 7.55557 2.16853 7.66476 2.24149 7.75851 2.33524 7.83147 2.44443 8 2.69665 8 3.04777 8 3.75L8 16.25C8 16.9522 8 17.3033 7.83147 17.5556 7.75851 17.6648 7.66476 17.7585 7.55557 17.8315 7.30335 18 6.95223 18 6.25 18L3.75 18C3.04777 18 2.69665 18 2.44443 17.8315 2.33524 17.7585 2.24149 17.6648 2.16853 17.5556 2 17.3033 2 16.9522 2 16.25L2 3.75C2 3.04777 2 2.69665 2.16853 2.44443 2.24149 2.33524 2.33524 2.24149 2.44443 2.16853 2.69665 2 3.04777 2 3.75 2L6.25 2z"></path></svg>