<svg xmlns="http://www.w3.org/2000/svg" width="20" height="20" viewBox="0 0 20 20" fill="none" stroke="#fff" stroke-width="1.5" stroke-linecap="round" stroke-linejoin="round" class="acorn-icons acorn-icons-diagram-1 ">
															<path d="M4 13.5V12C4 10.8954 4.89543 10 6 10L10 10M16 13.5V12C16 10.8954 15.1046 10 14 10L10 10M10 10V6"></path>
															<path d="M12 3.75C12 3.04777 12 2.69665 11.8315 2.44443 11.7585 2.33524 11.6648 2.24149 11.5556 2.16853 11.3033 2 10.9522 2 10.25 2H9.75C9.04777 2 8.69665 2 8.44443 2.16853 8.33524 2.24149 8.24149 2.33524 8.16853 2.44443 8 2.69665 8 3.04777 8 3.75V4.25C8 4.95223 8 5.30335 8.16853 5.55557 8.24149 5.66476 8.33524 5.75851 8.44443 5.83147 8.69665 6 9.04777 6 9.75 6H10.25C10.9522 6 11.3033 6 11.5556 5.83147 11.6648 5.75851 11.7585 5.66476 11.8315 5.55557 12 5.30335 12 4.95223 12 4.25V3.75zM6 15.75C6 15.0478 6 14.6967 5.83147 14.4444 5.75851 14.3352 5.66476 14.2415 5.55557 14.1685 5.30335 14 4.95223 14 4.25 14H3.75C3.04777 14 2.69665 14 2.44443 14.1685 2.33524 14.2415 2.24149 14.3352 2.16853 14.4444 2 14.6967 2 15.0478 2 15.75V16.25C2 16.9522 2 17.3033 2.16853 17.5556 2.24149 17.6648 2.33524 17.7585 2.44443 17.8315 2.69665 18 3.04777 18 3.75 18H4.25C4.95223 18 5.30335 18 5.55557 17.8315 5.66476 17.7585 5.75851 17.6648 5.83147 17.5556 6 17.3033 6 16.9522 6 16.25V15.75zM18 15.75C18 15.0478 18 14.6967 17.8315 14.4444 17.7585 14.3352 17.6648 14.2415 17.5556 14.1685 17.3033 14 16.9522 14 16.25 14H15.75C15.0478 14 14.6967 14 14.4444 14.1685 14.3352 14.2415 14.2415 14.3352 14.1685 14.4444 14 14.6967 14 15.0478 14 15.75V16.25C14 16.9522 14 17.3033 14.1685 17.5556 14.2415 17.6648 14.3352 17.7585 14.4444 17.8315 14.6967 18 15.0478 18 15.75 18H16.25C16.9522 18 17.3033 18 17.5556 17.8315 17.6648 17.7585 17.7585 17.6648 17.8315 17.5556 18 17.3033 18 16.9522 18 16.25V15.75z"></path></svg>