<svg xmlns="http://www.w3.org/2000/svg" width="18" height="18" viewBox="0 0 20 20" fill="none" stroke="#fff" stroke-width="1.5" stroke-linecap="round" stroke-linejoin="round" class="acorn-icons acorn-icons-tool icon">
															<path d="M2.82847 17.6777C2.01384 16.8631 2.436 16.063 2.67568 15.7356C2.74807 15.6368 2.8038 15.581 2.80381 15.581C2.80381 15.581 2.80381 15.581 2.80381 15.581L10.2804 8.10447C10.3532 8.03167 10.3745 7.92214 10.3402 7.82505C10.1388 7.25446 9.58601 5.2633 11.0506 3.79866C11.8564 2.99289 13.1224 2.49689 14.2435 2.19703C14.7679 2.05679 15.0579 2.80505 14.6702 3.18483C13.783 4.05364 13.1454 5.2028 14.2244 6.28176C15.3034 7.36072 16.4525 6.72312 17.3213 5.83601C17.7011 5.44823 18.4494 5.73829 18.3091 6.26263C18.0093 7.38379 17.5133 8.64975 16.7075 9.45552C15.2429 10.9201 13.2517 10.3674 12.6811 10.1659C12.584 10.1316 12.4745 10.153 12.4017 10.2258L4.92513 17.7024C4.92513 17.7024 4.92513 17.7024 4.92513 17.7024C4.92513 17.7024 3.88913 18.7383 2.82847 17.6777Z"></path></svg>