<svg xmlns="http://www.w3.org/2000/svg" width="18" height="18" viewBox="0 0 20 20" fill="none" stroke="currentColor" stroke-width="1.5" stroke-linecap="round" stroke-linejoin="round" class="acorn-icons acorn-icons-menu-bookmark d-inline-block">
									<path d="M16 13.3987V5.5C16 4.09554 16 3.39331 15.6629 2.88886C15.517 2.67048 15.3295 2.48298 15.1111 2.33706C14.6067 2 13.9045 2 12.5 2L7.5 2C6.09554 2 5.39331 2 4.88886 2.33706C4.67048 2.48298 4.48298 2.67048 4.33706 2.88886C4 3.39331 4 4.09554 4 5.5L4 13.3987C4 15.3061 4 16.2598 4.33863 16.765C4.75692 17.3892 5.48971 17.7262 6.23579 17.6376C6.83978 17.5659 7.56387 16.9453 9.01205 15.704C9.33079 15.4307 9.49016 15.2941 9.66509 15.232C9.88172 15.155 10.1183 15.155 10.3349 15.232C10.5098 15.2941 10.6692 15.4307 10.9879 15.704C12.4361 16.9453 13.1602 17.5659 13.7642 17.6376C14.5103 17.7262 15.2431 17.3892 15.6614 16.765C16 16.2598 16 15.3061 16 13.3987Z"></path>
									<path d="M8 6 12 6M8 10 12 10"></path></svg>